# xmcd CD database file
#
# Track frame offsets:
#	150
#	16395
#	37937
#	52050
#	71485
#	88625
#	102830
#	114365
#	136300
#	161500
#	188402
#	205392
#	223450
#	242162
#	259035
#
# Disc length: 3600 seconds
#
# Revision: 0
# Processed by: cddbd v1.5.2PL0 Copyright (c) Steve Scherf et al.
# Submitted via: CDex 1.51
#
DISCID=d10e0e0f
DTITLE=John Colainni - John Colainni and Company
DYEAR=1994
DGENRE=Jazz
TTITLE0=Lover Come Back
TTITLE1=Indian Summer
TTITLE2=Hallelujah
TTITLE3=Let Me
TTITLE4=Early in the Morning
TTITLE5=Why I Was Born
TTITLE6=Caldonia
TTITLE7=St Louis Blues
TTITLE8=I Didn't Know What Time it Was
TTITLE9=Outskirts of Town
TTITLE10=Lime House Blues
TTITLE11=After All
TTITLE12=When Your Lover Has Gone
TTITLE13=On the Alamo
TTITLE14=7 Come 11
EXTD=YEAR: 1994
EXTT0=
EXTT1=
EXTT2=
EXTT3=
EXTT4=
EXTT5=
EXTT6=
EXTT7=
EXTT8=
EXTT9=
EXTT10=
EXTT11=
EXTT12=
EXTT13=
EXTT14=
PLAYORDER=
